<svg xmlns="http://www.w3.org/2000/svg" width="15.484" height="12.387" viewBox="0 0 15.484 12.387"><g transform="translate(-60 -7521)"><path d="M8.87,7373.387a8.9,8.9,0,0,0,9.039-8.9c0-.136,0-.271-.009-.4a6.39,6.39,0,0,0,1.585-1.619,6.412,6.412,0,0,1-1.824.493,3.152,3.152,0,0,0,1.4-1.73,6.423,6.423,0,0,1-2.018.759,3.216,3.216,0,0,0-4.495-.136,3.1,3.1,0,0,0-.919,2.989,9.071,9.071,0,0,1-6.547-3.268,3.1,3.1,0,0,0,.984,4.175,3.189,3.189,0,0,1-1.442-.391v.04a3.142,3.142,0,0,0,2.549,3.065,3.2,3.2,0,0,1-1.434.053,3.175,3.175,0,0,0,2.967,2.173,6.437,6.437,0,0,1-3.945,1.341,6.539,6.539,0,0,1-.756-.045,9.1,9.1,0,0,0,4.87,1.4" transform="translate(56 160)" fill="#1c2657" fill-rule="evenodd"/></g></svg>