<svg width="181" height="36" viewBox="0 0 181 36" fill="none" xmlns="http://www.w3.org/2000/svg">
<g clip-path="url(#clip0)">
<path d="M179.077 8.18137C181.074 6.81624 181.604 4.0766 180.252 2.05471C178.9 0.0328192 176.187 -0.497283 174.184 0.867847C172.181 2.23298 168.269 7.28536 169.621 9.30256C170.973 11.3245 177.074 9.54181 179.077 8.18137Z" fill="#171824"/>
<path d="M45.5424 35.9997C38.2384 35.9997 32.1611 30.5861 32.1611 22.3109C32.1611 14.0357 38.2384 8.62207 45.5424 8.62207C52.8463 8.62207 58.9236 14.0357 58.9236 22.3109C58.9236 30.5861 52.8463 35.9997 45.5424 35.9997ZM42.4247 11.1928C39.9065 11.9153 39.0841 15.7433 41.2678 23.5353C43.4516 31.332 46.3973 34.081 48.66 33.4336C50.9228 32.7863 52.0007 28.8879 49.817 21.0912C47.6332 13.2945 44.9477 10.4704 42.4247 11.1928Z" fill="#171824"/>
<path d="M132.943 26.9323C132.943 23.2779 132.943 9.35917 132.943 9.35917C132.943 6.11288 132.325 4.77121 130.309 4.34431C130.016 4.28333 129.807 4.02532 129.807 3.72508C129.807 3.4483 129.984 3.20436 130.244 3.11992C130.244 3.11992 132.883 2.57575 135.271 1.78763C137.659 0.999514 139.699 0.0706632 139.699 0.0706632C140.577 -0.210807 141.469 0.445956 141.469 1.37481V28.1473C141.469 31.2528 143.151 32.496 145.902 31.3185C146.185 31.1965 146.52 31.2904 146.706 31.539C146.901 31.8017 146.882 32.1629 146.664 32.4069C146.143 32.9933 145.089 34.0675 143.676 34.9542C142.069 35.9628 138.17 36.6711 135.383 34.4897C133.394 32.9323 132.943 30.5867 132.943 26.9323Z" fill="#171824"/>
<path d="M159.005 35.9997C151.701 35.9997 145.623 30.5861 145.623 22.3109C145.623 14.0357 151.701 8.62207 159.005 8.62207C166.309 8.62207 172.386 14.0357 172.386 22.3109C172.386 30.5861 166.309 35.9997 159.005 35.9997ZM155.887 11.1928C153.369 11.9153 152.546 15.7433 154.73 23.5353C156.914 31.332 159.859 34.081 162.122 33.4336C164.385 32.7863 165.463 28.8879 163.279 21.0912C161.091 13.2945 158.405 10.4704 155.887 11.1928Z" fill="#171824"/>
<path d="M128.228 22.386C129.064 22.0763 129.626 21.2601 129.584 20.3594C129.245 12.7691 125.245 8.62207 117.843 8.62207C110.59 8.62207 104.755 13.9794 104.755 22.3109C104.755 31.3836 110.539 35.9997 117.694 35.9997C123.177 35.9997 127.684 33.1381 129.315 27.9356C129.417 27.6119 129.231 27.2648 128.915 27.1569C128.632 27.0584 128.311 27.1756 128.167 27.4383C126.397 30.6799 123.735 31.6463 120.733 31.6463C118.131 31.6463 115.85 30.3422 115.023 28.1139C114.568 26.8895 114.967 25.6088 116.171 24.9239C119.451 23.0568 123.186 24.2671 128.228 22.386ZM117.797 10.9583C120.64 10.9583 121.393 16.9207 120.965 19.59C120.552 22.1514 117.174 21.3164 113.94 24.9098C113.15 22.4422 113.629 10.9583 117.797 10.9583Z" fill="#171824"/>
<path d="M0.627246 35.4702C2.15587 35.4702 4.2885 35.1794 7.73604 35.1794C11.1836 35.1794 12.898 35.3952 14.6172 35.4702C14.9656 35.4843 15.2444 35.1981 15.2444 34.8557C15.2444 34.6211 15.105 34.4006 14.8866 34.3021C13.056 33.4906 12.1035 32.6274 12.1035 29.292H12.1128V23.306C12.1128 23.306 14.357 23.9769 18.2877 23.9581C26.2793 23.9159 32.1615 20.0316 32.1615 12.3897C32.1615 4.74779 26.2793 0.821289 18.2877 0.821289C18.2877 0.821289 13.4138 0.896348 8.17743 0.896348C2.94109 0.896348 0.627246 0.82598 0.627246 0.82598C0.283422 0.82598 0 1.10276 0 1.44052C0 1.67977 0.139388 1.89557 0.362409 1.99408C2.33243 2.87133 3.13623 3.65006 3.14088 6.9761V7.00424V7.19189V10.2646V13.7689V29.292C3.14088 32.6415 2.33707 33.4202 0.362409 34.3021C0.139388 34.4006 0 34.6211 0 34.8557C0 35.1981 0.283422 35.4702 0.627246 35.4702ZM14.4638 21.4671C12.9817 21.4671 12.1128 20.998 12.1128 20.998V5.69541C12.1128 4.38188 13.1675 3.32168 14.4638 3.32168C20.2484 3.32168 22.9944 6.34748 22.9944 12.3944C22.9944 18.4413 20.1555 21.4624 14.4638 21.4671Z" fill="#171824"/>
<path d="M104.146 34.3156C102.199 33.5885 101.944 33.1053 101.944 29.3664V28.6017V28.3015V17.8027C101.944 12.816 99.7879 8.62207 94.7374 8.62207C90.5697 8.62207 87.6797 11.3805 86.2579 15.8887C85.6679 11.7511 83.5631 8.62207 79.1492 8.62207C74.9815 8.62207 72.189 11.3805 70.7673 15.8887L70.7301 14.5611L70.6233 10.4235C70.5954 9.55092 69.7544 8.95045 68.932 9.20847C68.932 9.20847 66.7018 10.1983 64.6249 10.8738C62.548 11.5447 59.7371 12.1358 59.7371 12.1358C59.4722 12.2202 59.2957 12.4641 59.2957 12.7456C59.2957 13.0458 59.5047 13.3039 59.7974 13.3648C61.5956 13.7542 62.1113 14.805 62.2367 17.2444V29.3664C62.2367 32.6831 62.0323 33.443 60.0391 34.3203C59.8253 34.4141 59.6859 34.6299 59.6859 34.8691C59.6859 35.2022 59.9508 35.4696 60.2807 35.4696C62.1763 35.4696 63.8165 35.1694 66.7111 35.1694C69.6104 35.1694 70.5536 35.4696 72.7141 35.4696C73.044 35.4696 73.3134 35.1975 73.3134 34.8644C73.3134 34.6299 73.1833 34.4 72.9696 34.3156C71.0228 33.5885 70.7673 33.1053 70.7673 29.3664V21.3586C70.7673 16.4798 72.4353 14.5658 74.7863 14.5658C76.9422 14.5658 77.825 16.264 77.825 19.1303V28.3062V29.3711C77.825 32.6877 77.6205 33.4477 75.6273 34.325C75.4136 34.4188 75.2742 34.6346 75.2742 34.8738C75.2742 35.2069 75.539 35.4743 75.8689 35.4743C77.7646 35.4743 79.4047 35.1741 82.2993 35.1741C85.194 35.1741 86.1418 35.4743 88.3023 35.4743C88.6322 35.4743 88.9017 35.2022 88.9017 34.8691C88.9017 34.6346 88.7716 34.4 88.5579 34.3203C86.6111 33.5931 86.3555 33.11 86.3555 29.3711V28.3719V21.3633C86.3555 16.4845 88.0235 14.5705 90.3745 14.5705C92.5304 14.5705 93.4132 16.2687 93.4132 19.135V28.3109V28.6111V29.3758C93.4132 32.6924 93.2088 33.4524 91.2155 34.3297C91.0018 34.4235 90.8624 34.6393 90.8624 34.8785C90.8624 35.2116 91.1272 35.479 91.4571 35.479C93.3528 35.479 94.9929 35.1788 97.8876 35.1788C100.787 35.1788 101.73 35.479 103.891 35.479C104.22 35.479 104.49 35.2069 104.49 34.8738C104.49 34.6299 104.36 34.4 104.146 34.3156Z" fill="#171824"/>
</g>
<defs>
<clipPath id="clip0">
<rect width="181" height="36" fill="white"/>
</clipPath>
</defs>
</svg>
