<svg xmlns="http://www.w3.org/2000/svg" viewBox="0 0 310.98 438.09"><defs><style>.cls-1{fill:#ffeee4;}</style></defs><g id="Layer_2" data-name="Layer 2"><g id="Layer_1-2" data-name="Layer 1"><path class="cls-1" d="M231.07,0c58.61,70.8,94.46,156.71,74.23,249-14.49,66.92-60.45,136-119.81,171-18.58,11-39,15.46-59.93,15.91-40.8,1.2-81.67,1.44-125.56,2.11,3.9-12.87,6.29-22,9.65-31.17,17.43-47.09,35.23-94.28,52.44-141.5,3.48-9.41,8.85-15.61,19-18.79,15.39-4.83,27.53-14.27,29.36-31.1.95-9.31-.82-19.24-3.12-28.25-2.33-8.4-2.36-14.88,2.83-22.41,30.43-42.8,60.16-86,90.83-128.66C209.4,24.06,220.07,12.86,231.07,0Z"/></g></g></svg>