<svg xmlns="http://www.w3.org/2000/svg" viewBox="0 0 181 35.99"><defs><style>.cls-1{fill:#ff5e3a;}</style></defs><g id="Layer_2" data-name="Layer 2"><g id="Layer_1-2" data-name="Layer 1"><path class="cls-1" d="M179.08,8.18a4.45,4.45,0,0,0,1.17-6.13A4.35,4.35,0,0,0,174.18.86c-2,1.37-5.91,6.42-4.56,8.44S177.07,9.54,179.08,8.18Z"/><path class="cls-1" d="M45.54,36c-7.3,0-13.38-5.41-13.38-13.68S38.24,8.62,45.54,8.62,58.92,14,58.92,22.31,52.85,36,45.54,36Zm-3.12-24.8c-2.51.72-3.34,4.55-1.15,12.34s5.13,10.55,7.39,9.9S52,28.88,49.82,21.09,45,10.47,42.42,11.19Z"/><path class="cls-1" d="M132.94,26.93V9.35c0-3.24-.62-4.58-2.63-5a.63.63,0,0,1-.5-.62.62.62,0,0,1,.43-.6s2.64-.55,5-1.34S139.7.07,139.7.07a1.35,1.35,0,0,1,1.77,1.3V28.14c0,3.11,1.68,4.35,4.43,3.17a.7.7,0,0,1,.81.22.69.69,0,0,1-.05.87,14.28,14.28,0,0,1-3,2.55,7.86,7.86,0,0,1-8.3-.47C133.39,32.93,132.94,30.58,132.94,26.93Z"/><path class="cls-1" d="M159,36c-7.31,0-13.39-5.41-13.39-13.68S151.7,8.62,159,8.62,172.39,14,172.39,22.31,166.31,36,159,36Zm-3.12-24.8c-2.52.72-3.34,4.55-1.16,12.34s5.13,10.55,7.39,9.9,3.34-4.55,1.16-12.34S158.4,10.47,155.89,11.19Z"/><path class="cls-1" d="M128.23,22.38a2.06,2.06,0,0,0,1.35-2c-.34-7.59-4.33-11.73-11.74-11.73-7.25,0-13.09,5.35-13.09,13.69,0,9.07,5.79,13.68,12.94,13.68,5.49,0,10-2.86,11.63-8.06a.64.64,0,0,0-.41-.78.61.61,0,0,0-.74.28c-1.77,3.25-4.43,4.21-7.44,4.21A5.84,5.84,0,0,1,115,28.11a2.53,2.53,0,0,1,1.15-3.19C119.45,23.05,123.19,24.26,128.23,22.38ZM117.8,11c2.84,0,3.59,6,3.16,8.64s-3.79,1.72-7,5.31C113.15,22.44,113.63,11,117.8,11Z"/><path class="cls-1" d="M.63,35.47c1.53,0,3.66-.3,7.11-.3s5.16.22,6.88.3a.61.61,0,0,0,.62-.62.62.62,0,0,0-.35-.55c-1.83-.81-2.79-1.68-2.79-5h0v-6a23.35,23.35,0,0,0,6.18.65c8,0,13.87-3.92,13.87-11.57S26.28.82,18.29.82c0,0-4.88.07-10.11.07S.63.82.63.82A.63.63,0,0,0,0,1.44.61.61,0,0,0,.36,2c2,.88,2.78,1.66,2.78,5V29.29c0,3.35-.8,4.13-2.78,5a.61.61,0,0,0-.36.55A.63.63,0,0,0,.63,35.47Zm13.83-14A5.32,5.32,0,0,1,12.11,21V5.69a2.36,2.36,0,0,1,2.35-2.37c5.79,0,8.53,3,8.53,9.07S20.16,21.46,14.46,21.46Z"/><path class="cls-1" d="M104.15,34.31c-2-.73-2.21-1.21-2.21-5V17.8c0-5-2.15-9.18-7.2-9.18-4.17,0-7.06,2.76-8.48,7.26-.59-4.13-2.7-7.26-7.11-7.26-4.17,0-7,2.76-8.38,7.26l0-1.32-.11-4.14A1.31,1.31,0,0,0,68.93,9.2s-2.23,1-4.31,1.67-4.88,1.26-4.88,1.26a.63.63,0,0,0-.44.61.62.62,0,0,0,.5.62c1.8.39,2.31,1.44,2.44,3.88V29.36c0,3.32-.21,4.08-2.2,5a.59.59,0,0,0-.35.54.59.59,0,0,0,.59.6c1.9,0,3.54-.3,6.43-.3s3.84.3,6,.3A.61.61,0,0,0,73,34.31c-2-.73-2.2-1.21-2.2-5v-8c0-4.88,1.67-6.79,4-6.79,2.15,0,3,1.7,3,4.57V29.37c0,3.31-.2,4.07-2.19,4.95a.59.59,0,0,0-.36.55.6.6,0,0,0,.6.6c1.89,0,3.53-.3,6.43-.3s3.84.3,6,.3a.6.6,0,0,0,.6-.61.58.58,0,0,0-.34-.54c-2-.73-2.2-1.21-2.2-4.95v-8c0-4.88,1.66-6.79,4-6.79,2.16,0,3,1.69,3,4.56V29.37c0,3.32-.2,4.08-2.19,4.95a.6.6,0,0,0,.24,1.15c1.89,0,3.53-.3,6.43-.3s3.84.3,6,.3a.61.61,0,0,0,.26-1.16Z"/></g></g></svg>